<svg id="visual" viewBox="0 0 1920 2000" width="1920" height="2000" xmlns="http://www.w3.org/2000/svg" xmlns:xlink="http://www.w3.org/1999/xlink" version="1.1"><rect width="1920" height="2000" fill="#f1f5f9"></rect><g><g transform="translate(497 821)"><path d="M267.6 -156.6C316.4 -70.1 304.4 49.4 249.7 140.1C194.9 230.9 97.5 292.9 2.1 291.8C-93.4 290.6 -186.7 226.1 -235.6 138.7C-284.5 51.3 -288.9 -59 -242.3 -144.3C-195.6 -229.5 -97.8 -289.7 5.8 -293.1C109.5 -296.4 218.9 -243 267.6 -156.6Z" stroke="#3EB489" fill="none" stroke-width="36"></path></g><g transform="translate(1266 1260)"><path d="M145.3 -78C176.6 -29.6 182.3 39.5 153.9 94.1C125.4 148.8 62.7 188.9 5.5 185.7C-51.6 182.5 -103.2 136 -133.4 80.4C-163.5 24.8 -172.2 -39.8 -146.4 -85.1C-120.6 -130.3 -60.3 -156.1 -1.7 -155.2C57 -154.2 113.9 -126.4 145.3 -78Z" stroke="#3EB489" fill="none" stroke-width="36"></path></g><g transform="translate(1734 265)"><path d="M231.6 -126.4C280.7 -48.6 287.7 60.8 242.1 144.6C196.5 228.3 98.3 286.5 5.7 283.2C-87 280 -173.9 215.3 -222.4 129.8C-271 44.4 -281.1 -61.9 -237.6 -136.4C-194.1 -211 -97.1 -253.9 -2.9 -252.2C91.2 -250.5 182.4 -204.3 231.6 -126.4Z" stroke="#3EB489" fill="none" stroke-width="36"></path></g><g transform="translate(368 1702)"><path d="M222.2 -119.9C274.7 -37.3 295 72.4 252.6 154.3C210.2 236.3 105.1 290.6 8.8 285.5C-87.5 280.4 -175.1 216 -225.1 129.7C-275.1 43.3 -287.6 -64.9 -243.8 -142.6C-200 -220.2 -100 -267.1 -7.6 -262.7C84.8 -258.4 169.6 -202.6 222.2 -119.9Z" stroke="#3EB489" fill="none" stroke-width="36"></path></g><g transform="translate(774 47)"><path d="M138.7 -78.5C169 -27.8 175.1 38.5 148 92.9C120.9 147.3 60.4 190 3.3 188.1C-53.8 186.2 -107.7 139.7 -137.9 83.5C-168.2 27.2 -174.9 -38.8 -148 -87.6C-121 -136.5 -60.5 -168.1 -3.1 -166.3C54.3 -164.5 108.5 -129.2 138.7 -78.5Z" stroke="#3EB489" fill="none" stroke-width="36"></path></g><g transform="translate(1592 1986)"><path d="M191.3 -106.8C230.2 -43 231.9 46 193.8 107.2C155.7 168.5 77.9 202.2 3.5 200.1C-70.8 198.1 -141.6 160.4 -176 101.2C-210.5 42 -208.5 -38.6 -173.1 -100.4C-137.7 -162.2 -68.8 -205.1 3.7 -207.2C76.2 -209.3 152.3 -170.6 191.3 -106.8Z" stroke="#3EB489" fill="none" stroke-width="36"></path></g></g></svg>